<svg width="1440" height="1024" viewBox="0 0 1440 1024" fill="none" xmlns="http://www.w3.org/2000/svg">
  <g opacity="0.15">
    <!-- Background pattern -->
    <rect width="1440" height="1024" fill="#000000" />
    
    <!-- Grid pattern -->
    <path d="M0 64H1440" stroke="#555555" stroke-width="0.5" />
    <path d="M0 128H1440" stroke="#555555" stroke-width="0.5" />
    <path d="M0 192H1440" stroke="#555555" stroke-width="0.5" />
    <path d="M0 256H1440" stroke="#555555" stroke-width="0.5" />
    <path d="M0 320H1440" stroke="#555555" stroke-width="0.5" />
    <path d="M0 384H1440" stroke="#555555" stroke-width="0.5" />
    <path d="M0 448H1440" stroke="#555555" stroke-width="0.5" />
    <path d="M0 512H1440" stroke="#555555" stroke-width="0.5" />
    <path d="M0 576H1440" stroke="#555555" stroke-width="0.5" />
    <path d="M0 640H1440" stroke="#555555" stroke-width="0.5" />
    <path d="M0 704H1440" stroke="#555555" stroke-width="0.5" />
    <path d="M0 768H1440" stroke="#555555" stroke-width="0.5" />
    <path d="M0 832H1440" stroke="#555555" stroke-width="0.5" />
    <path d="M0 896H1440" stroke="#555555" stroke-width="0.5" />
    <path d="M0 960H1440" stroke="#555555" stroke-width="0.5" />
    
    <path d="M64 0V1024" stroke="#555555" stroke-width="0.5" />
    <path d="M128 0V1024" stroke="#555555" stroke-width="0.5" />
    <path d="M192 0V1024" stroke="#555555" stroke-width="0.5" />
    <path d="M256 0V1024" stroke="#555555" stroke-width="0.5" />
    <path d="M320 0V1024" stroke="#555555" stroke-width="0.5" />
    <path d="M384 0V1024" stroke="#555555" stroke-width="0.5" />
    <path d="M448 0V1024" stroke="#555555" stroke-width="0.5" />
    <path d="M512 0V1024" stroke="#555555" stroke-width="0.5" />
    <path d="M576 0V1024" stroke="#555555" stroke-width="0.5" />
    <path d="M640 0V1024" stroke="#555555" stroke-width="0.5" />
    <path d="M704 0V1024" stroke="#555555" stroke-width="0.5" />
    <path d="M768 0V1024" stroke="#555555" stroke-width="0.5" />
    <path d="M832 0V1024" stroke="#555555" stroke-width="0.5" />
    <path d="M896 0V1024" stroke="#555555" stroke-width="0.5" />
    <path d="M960 0V1024" stroke="#555555" stroke-width="0.5" />
    <path d="M1024 0V1024" stroke="#555555" stroke-width="0.5" />
    <path d="M1088 0V1024" stroke="#555555" stroke-width="0.5" />
    <path d="M1152 0V1024" stroke="#555555" stroke-width="0.5" />
    <path d="M1216 0V1024" stroke="#555555" stroke-width="0.5" />
    <path d="M1280 0V1024" stroke="#555555" stroke-width="0.5" />
    <path d="M1344 0V1024" stroke="#555555" stroke-width="0.5" />
    <path d="M1408 0V1024" stroke="#555555" stroke-width="0.5" />
    
    <!-- Job-related icons -->
    <!-- Briefcase -->
    <path d="M200 200H240V180H200V200ZM190 210C184.477 210 180 205.523 180 200V180C180 174.477 184.477 170 190 170H250C255.523 170 260 174.477 260 180V200C260 205.523 255.523 210 250 210H190ZM180 220H260V250C260 255.523 255.523 260 250 260H190C184.477 260 180 255.523 180 250V220Z" fill="#888888"/>
    
    <!-- Document -->
    <path d="M680 180V260H760V200L740 180H680ZM670 180C670 174.477 674.477 170 680 170H740C742.652 170 745.196 171.054 747.071 172.929L770.071 195.929C771.946 197.804 773 200.348 773 203V260C773 265.523 768.523 270 763 270H677C671.477 270 667 265.523 667 260V180C667 174.477 671.477 170 677 170H680ZM700 220H740V230H700V220ZM700 240H740V250H700V240Z" fill="#888888"/>
    
    <!-- Search -->
    <path d="M1180 170C1146.86 170 1120 196.863 1120 230C1120 263.137 1146.86 290 1180 290C1213.14 290 1240 263.137 1240 230C1240 196.863 1213.14 170 1180 170ZM1110 230C1110 191.34 1141.34 160 1180 160C1218.66 160 1250 191.34 1250 230C1250 268.66 1218.66 300 1180 300C1141.34 300 1110 268.66 1110 230Z" fill="#888888"/>
    <path d="M1230 260L1270 300" stroke="#888888" stroke-width="10" stroke-linecap="round"/>
    
    <!-- Computer -->
    <path d="M200 500H300V560H200V500ZM190 570H310V580H190V570ZM190 490C184.477 490 180 494.477 180 500V560C180 565.523 184.477 570 190 570H190V570H310V570H310C315.523 570 320 565.523 320 560V500C320 494.477 315.523 490 310 490H190Z" fill="#888888"/>
    
    <!-- Building -->
    <path d="M680 490H700V510H680V490ZM720 490H740V510H720V490ZM680 530H700V550H680V530ZM720 530H740V550H720V530ZM680 570H700V590H680V570ZM720 570H740V590H720V570ZM670 480C670 474.477 674.477 470 680 470H740C745.523 470 750 474.477 750 480V600H670V480Z" fill="#888888"/>
    
    <!-- Chat -->
    <path d="M1180 490C1146.86 490 1120 516.863 1120 550C1120 583.137 1146.86 610 1180 610C1213.14 610 1240 583.137 1240 550C1240 516.863 1213.14 490 1180 490ZM1110 550C1110 511.34 1141.34 480 1180 480C1218.66 480 1250 511.34 1250 550C1250 588.66 1218.66 620 1180 620C1141.34 620 1110 588.66 1110 550Z" fill="#888888"/>
    <path d="M1160 540H1200V560H1160V540Z" fill="#888888"/>
    
    <!-- Resume -->
    <path d="M200 800V880H280V800H200ZM190 790C190 784.477 194.477 780 200 780H280C285.523 780 290 784.477 290 790V880C290 885.523 285.523 890 280 890H200C194.477 890 190 885.523 190 880V790ZM210 810H270V820H210V810ZM210 830H250V840H210V830ZM210 850H270V860H210V850Z" fill="#888888"/>
    
    <!-- Handshake -->
    <path d="M680 800H740V810H680V800ZM680 820H740V830H680V820ZM680 840H740V850H680V840ZM680 860H740V870H680V860ZM670 790C670 784.477 674.477 780 680 780H740C745.523 780 750 784.477 750 790V880C750 885.523 745.523 890 740 890H680C674.477 890 670 885.523 670 880V790Z" fill="#888888"/>
    
    <!-- Chart -->
    <path d="M1180 800V880H1190V800H1180ZM1200 830V880H1210V830H1200ZM1220 810V880H1230V810H1220ZM1240 850V880H1250V850H1240ZM1170 790C1170 784.477 1174.48 780 1180 780H1250C1255.52 780 1260 784.477 1260 790V880C1260 885.523 1255.52 890 1250 890H1180C1174.48 890 1170 885.523 1170 880V790Z" fill="#888888"/>
  </g>
</svg>
